<?xml version="1.0" encoding="UTF-8"?>
<svg version="1.1" xmlns="http://www.w3.org/2000/svg" width="512" height="512">
<path d="M0 0 C1.44419815 -0.01708511 1.44419815 -0.01708511 2.91757202 -0.03451538 C12.99672624 -0.14520597 23.07661592 -0.1926061 33.15625 -0.23535156 C37.9385163 -0.25762188 42.72000166 -0.29938218 47.50195312 -0.35839844 C53.27503292 -0.42950953 59.04737798 -0.46618764 64.82087326 -0.47846985 C67.0193106 -0.48886738 69.21772587 -0.51128414 71.41591263 -0.54606628 C74.49949686 -0.59232987 77.58020746 -0.5942656 80.6640625 -0.5859375 C81.56723206 -0.60953339 82.47040161 -0.63312927 83.40093994 -0.65744019 C89.62928536 -0.5762956 92.6817252 1.14818877 97.10214138 5.51288128 C97.63610562 6.07775155 98.17006987 6.64262182 98.72021484 7.22460938 C99.46907959 7.93077393 100.21794434 8.63693848 100.98950195 9.36450195 C101.56966064 9.94353271 102.14981934 10.52256348 102.74755859 11.11914062 C103.39402344 11.76431641 104.04048828 12.40949219 104.70654297 13.07421875 C105.35042969 13.72197266 105.99431641 14.36972656 106.65771484 15.03710938 C107.66415039 16.03774414 107.66415039 16.03774414 108.69091797 17.05859375 C109.32835937 17.69732422 109.96580078 18.33605469 110.62255859 18.99414062 C111.48095337 19.85422729 111.48095337 19.85422729 112.35668945 20.73168945 C115.29760512 23.95168932 114.85076227 26.79689087 114.86065674 31.03718567 C114.86511342 32.10026437 114.86511342 32.10026437 114.86966014 33.1848194 C114.87836648 35.5715483 114.87985702 37.95822716 114.88134766 40.3449707 C114.88597448 42.05141813 114.89099896 43.75786452 114.89639282 45.46430969 C114.90953231 50.10900655 114.91596485 54.75368895 114.92040348 59.3984015 C114.92333184 62.29871647 114.92743621 65.19902746 114.93190765 68.09934044 C114.94558695 77.16931414 114.95525137 86.23927879 114.95910954 95.3092621 C114.96359086 105.78735281 114.98114036 116.26531311 115.01011014 126.74336416 C115.03171196 134.83683663 115.04181303 142.93027237 115.04315066 151.02377337 C115.04419981 155.86023286 115.05013086 160.69656984 115.06797028 165.53299904 C115.08442494 170.08266683 115.08661917 174.63211966 115.07783127 179.18180656 C115.07705948 180.85193583 115.08142224 182.52207652 115.09128952 184.19217682 C115.10396978 186.47206905 115.09815411 188.75119548 115.08770752 191.03108215 C115.08917408 192.30701138 115.09064064 193.58294062 115.09215164 194.89753437 C114.43604385 200.76659555 111.18516568 204.01074966 107.12255859 208.05273438 C106.23890625 208.93445313 105.35525391 209.81617188 104.44482422 210.72460938 C103.06520508 212.08585937 103.06520508 212.08585937 101.65771484 213.47460938 C100.73410156 214.39757812 99.81048828 215.32054687 98.85888672 216.27148438 C92.31637069 222.77098897 89.8058792 224.37344982 80.53222656 224.44921875 C79.57918137 224.46060883 78.62613617 224.4719989 77.64421082 224.48373413 C67.66702503 224.59442646 57.68909634 224.64182521 47.71142578 224.68457031 C42.97765831 224.70683998 38.24467986 224.74859927 33.51123047 224.80761719 C27.79650428 224.87873263 22.08252039 224.91540701 16.36737442 224.9276886 C14.19126484 224.93808543 12.01517753 224.96050057 9.83932114 224.99528503 C6.78686125 225.04155452 3.73730389 225.04348376 0.68457031 225.03515625 C-0.2092485 225.05875214 -1.10306732 225.08234802 -2.02397156 225.10665894 C-8.2234484 225.02508248 -11.25809714 223.2755068 -15.65848446 218.93633747 C-16.19351369 218.3714672 -16.72854292 217.80659693 -17.27978516 217.22460938 C-18.0286499 216.51844482 -18.77751465 215.81228027 -19.54907227 215.0847168 C-20.12923096 214.50568604 -20.70938965 213.92665527 -21.30712891 213.33007812 C-21.95359375 212.68490234 -22.60005859 212.03972656 -23.26611328 211.375 C-23.91 210.72724609 -24.55388672 210.07949219 -25.21728516 209.41210938 C-26.2237207 208.41147461 -26.2237207 208.41147461 -27.25048828 207.390625 C-28.20665039 206.4325293 -28.20665039 206.4325293 -29.18212891 205.45507812 C-29.75439209 204.88168701 -30.32665527 204.3082959 -30.91625977 203.7175293 C-33.39469218 201.00390097 -33.40246421 199.06943987 -33.39331055 195.49951172 C-33.39323502 194.51864594 -33.39315948 193.53778015 -33.39308167 192.52719116 C-33.38792038 191.46569855 -33.38275909 190.40420593 -33.37744141 189.31054688 C-33.37531898 187.68338242 -33.37531898 187.68338242 -33.37315369 186.02334595 C-33.36754318 182.54873938 -33.35498888 179.07419656 -33.34228516 175.59960938 C-33.33727151 173.2480478 -33.33270837 170.89648523 -33.32861328 168.54492188 C-33.31757034 162.77146251 -33.30082195 156.9980405 -33.27978516 151.22460938 C-34.00345276 151.34262405 -34.72712036 151.46063873 -35.47271729 151.58222961 C-95.62909199 161.36537625 -156.76891204 163.29330772 -217.34228516 156.28710938 C-218.0325882 156.20779175 -218.72289124 156.12847412 -219.43411255 156.04675293 C-229.47711077 154.87418721 -239.3654039 153.1933234 -249.27978516 151.22460938 C-249.26424088 151.82072021 -249.24869659 152.41683105 -249.23268127 153.03100586 C-249.07727893 159.26044204 -248.97202039 165.48932395 -248.89526367 171.72021484 C-248.86015775 174.04238262 -248.81246 176.36439674 -248.75170898 178.68603516 C-248.66635906 182.03261283 -248.62699684 185.37713832 -248.59619141 188.72460938 C-248.54199791 190.27039673 -248.54199791 190.27039673 -248.48670959 191.84741211 C-248.48377758 197.28431843 -248.95879042 200.50760659 -252.57910156 204.69165039 C-253.79099498 205.89158962 -255.02239807 207.07242991 -256.27978516 208.22460938 C-256.98594971 208.97347412 -257.69211426 209.72233887 -258.41967773 210.49389648 C-259.28822388 211.36413452 -259.28822388 211.36413452 -260.17431641 212.25195312 C-260.81949219 212.89841797 -261.46466797 213.54488281 -262.12939453 214.2109375 C-262.77714844 214.85482422 -263.42490234 215.49871094 -264.09228516 216.16210938 C-265.09291992 217.16854492 -265.09291992 217.16854492 -266.11376953 218.1953125 C-266.7525 218.83275391 -267.39123047 219.47019531 -268.04931641 220.12695312 C-268.62270752 220.69921631 -269.19609863 221.27147949 -269.78686523 221.86108398 C-273.4487955 225.205627 -277.88210431 224.41139266 -282.55957031 224.44921875 C-283.52236908 224.46060883 -284.48516785 224.4719989 -285.47714233 224.48373413 C-295.55629655 224.59442472 -305.63618623 224.64182485 -315.71582031 224.68457031 C-320.49808661 224.70684063 -325.27957197 224.74860093 -330.06152344 224.80761719 C-335.83460324 224.87872828 -341.60694829 224.91540639 -347.38044357 224.9276886 C-349.57888091 224.93808613 -351.77729618 224.96050289 -353.97548294 224.99528503 C-357.05906718 225.04154862 -360.13977777 225.04348435 -363.22363281 225.03515625 C-364.12680237 225.05875214 -365.02997192 225.08234802 -365.96051025 225.10665894 C-372.10501258 225.02660668 -374.99967616 223.4336748 -379.32733536 219.12161827 C-381.26620932 217.23779971 -383.22757868 215.84013729 -385.47767639 214.3518219 C-392.23908542 209.37153416 -397.13117172 204.11418546 -398.57026988 195.58283311 C-399.79488606 185.99353694 -399.71354609 176.28784872 -399.65951419 166.63757396 C-399.64787216 162.99998732 -399.68477821 159.36348701 -399.72061878 155.72610766 C-399.80383947 147.12682397 -399.80349604 138.53034822 -399.75024414 129.9309082 C-399.69718028 121.12159835 -399.78657522 112.32193532 -399.94688743 103.51414007 C-400.08027669 95.89759824 -400.12239128 88.28407488 -400.0945459 80.6664229 C-400.07890173 76.14008319 -400.09524067 71.62035779 -400.20062065 67.09507561 C-400.85035891 36.57372244 -400.85035891 36.57372244 -390.5184744 25.08678371 C-376.37858029 10.40017735 -376.37858029 10.40017735 -368.37265015 10.05725098 C-366.64303099 10.03288804 -364.91332554 10.01427989 -363.18359375 10 C-362.24030212 9.98860992 -361.2970105 9.97721985 -360.32513428 9.96548462 C-350.44991701 9.85479051 -340.57394925 9.80739317 -330.69824219 9.76464844 C-326.01297346 9.74237943 -321.32850201 9.70062117 -316.64355469 9.64160156 C-310.98718208 9.57048168 -305.33155949 9.5338111 -299.67476273 9.52153015 C-297.52098089 9.51113403 -295.36722151 9.48872056 -293.21369553 9.45393372 C-290.19235982 9.40765821 -287.17395611 9.4057356 -284.15234375 9.4140625 C-283.26787567 9.39046661 -282.38340759 9.36687073 -281.47213745 9.34255981 C-274.3601373 9.43708945 -271.13723813 12.28350817 -266.27978516 17.22460938 C-264.80045613 18.26505518 -263.30482439 19.28364686 -261.77978516 20.25585938 C-255.97048982 24.51718581 -250.37493565 29.01985188 -248.81903076 36.41436768 C-247.26201019 48.55925104 -248.28894635 61.06643434 -249.27978516 73.22460938 C-248.06701904 73.02617432 -246.85425293 72.82773926 -245.60473633 72.62329102 C-185.64032071 62.91299046 -124.23535006 63.32018787 -63.90478516 69.22460938 C-63.04692413 69.30819702 -62.18906311 69.39178467 -61.3052063 69.47790527 C-51.89700168 70.40726215 -42.58614853 71.52754093 -33.27978516 73.22460938 C-33.29532944 72.62849854 -33.31087372 72.0323877 -33.32688904 71.41821289 C-33.48229138 65.18877671 -33.58754992 58.9598948 -33.66430664 52.72900391 C-33.69941256 50.40683613 -33.74711032 48.08482201 -33.80786133 45.76318359 C-33.89321125 42.41660592 -33.93257348 39.07208043 -33.96337891 35.72460938 C-33.9995079 34.69408447 -34.0356369 33.66355957 -34.07286072 32.60180664 C-34.07579273 27.16490032 -33.6007799 23.94161216 -29.98046875 19.75756836 C-28.76857533 18.55762913 -27.53717225 17.37678884 -26.27978516 16.22460938 C-25.57362061 15.47574463 -24.86745605 14.72687988 -24.13989258 13.95532227 C-23.56086182 13.37516357 -22.98183105 12.79500488 -22.38525391 12.19726562 C-21.74007813 11.55080078 -21.09490234 10.90433594 -20.43017578 10.23828125 C-19.78242188 9.59439453 -19.13466797 8.95050781 -18.46728516 8.28710938 C-17.80019531 7.61615234 -17.13310547 6.94519531 -16.44580078 6.25390625 C-15.80707031 5.61646484 -15.16833984 4.97902344 -14.51025391 4.32226562 C-13.93686279 3.75000244 -13.36347168 3.17773926 -12.77270508 2.58813477 C-9.11077481 -0.75640825 -4.677466 0.03782609 0 0 Z M-15.02336693 28.25837517 C-19.73695455 39.38652066 -18.42869793 53.1236652 -18.29466772 64.96405792 C-18.25631927 69.4174191 -18.29201199 73.87034779 -18.31546021 78.32373047 C-18.34264598 85.79870921 -18.30707206 93.27145519 -18.23535156 100.74609375 C-18.15372277 109.3519883 -18.18017378 117.95255166 -18.26274765 126.55831718 C-18.33112708 133.98600375 -18.34027742 141.41209817 -18.30116761 148.83999825 C-18.2779451 153.25935194 -18.27419087 157.67621107 -18.32421494 162.09539795 C-19.24375063 182.60436857 -19.24375063 182.60436857 -11.75525951 200.94989681 C-4.80083025 208.00079585 3.11658263 210.21470896 12.81639099 210.3344574 C14.5435054 210.31091784 16.27056852 210.28331515 17.99755859 210.25195312 C19.82112478 210.26464305 21.64466553 210.28162358 23.46815491 210.30262756 C27.26791043 210.32906653 31.06234356 210.30164457 34.86157227 210.23510742 C39.68803535 210.15523447 44.50091889 210.21482525 49.32657528 210.31589413 C53.08634415 210.37817995 56.84297813 210.36332511 60.60296822 210.3267231 C62.37888456 210.3186737 64.155091 210.33390327 65.93055534 210.37476921 C75.9082852 210.55965304 84.04988878 209.00787666 91.80053711 202.34399414 C101.9640913 192.03202614 101.01265564 177.45993652 100.92765754 163.92794937 C100.90973071 162.22546884 100.8903002 160.52300354 100.86942291 158.82055664 C100.82847059 154.42904289 100.86660272 150.03802337 100.89160156 145.64648438 C100.92058691 138.27570255 100.88269077 130.90749831 100.80615234 123.53710938 C100.71908111 115.05533297 100.74729666 106.57971098 100.83537483 98.0980835 C100.90835233 90.77305004 100.91805529 83.44985287 100.87635612 76.12457275 C100.85160556 71.76822256 100.84751991 67.41475056 100.90093994 63.05859375 C101.71130106 42.46429779 101.71130106 42.46429779 93.83516598 24.16956425 C86.57600836 16.80440442 78.67546921 14.12253862 68.48509216 14.02711487 C66.76000392 14.05908015 65.03498611 14.09506289 63.31005859 14.13476562 C61.48553205 14.1264959 59.66102195 14.11332618 57.83656311 14.0955658 C54.03823383 14.07663879 50.24599291 14.11406828 46.44848633 14.19360352 C41.6211981 14.29049773 36.80702967 14.24818277 31.97991085 14.16364384 C28.22014823 14.11289954 24.46339689 14.13512742 20.70364571 14.17843437 C18.92697386 14.19079796 17.150001 14.18187404 15.37357903 14.14961433 C2.72931447 13.97728038 -8.10761685 16.82450137 -15.02336693 28.25837517 Z M-380.02591324 39.36885071 C-384.55505182 49.68419996 -383.45268328 62.43085448 -383.32759929 73.50797725 C-383.30000435 76.78570962 -383.32092118 80.06242795 -383.34183794 83.34015471 C-383.39110263 91.08253425 -383.36608147 98.82210965 -383.2902832 106.56420898 C-383.21352278 114.50812642 -383.24871947 122.44577411 -383.34159654 130.38937849 C-383.41862701 137.25153973 -383.43236368 144.11181117 -383.3952561 150.97430521 C-383.3733591 155.05469082 -383.372464 159.13190972 -383.42994499 163.21201897 C-384.1302883 182.79314518 -384.1302883 182.79314518 -376.39714813 200.13443756 C-369.84227354 206.81878218 -362.85807776 209.94436753 -353.54666328 210.39814949 C-350.98452187 210.42267967 -348.43111344 210.37341092 -345.86962891 210.31445312 C-344.04510236 210.32272285 -342.22059226 210.33589257 -340.39613342 210.35365295 C-336.59780414 210.37257996 -332.80556322 210.33515047 -329.00805664 210.25561523 C-324.18076841 210.15872102 -319.36659998 210.20103598 -314.53948116 210.28557491 C-310.77971854 210.33631921 -307.0229672 210.31409133 -303.26321602 210.27078438 C-301.48654417 210.25842079 -299.70957131 210.26734471 -297.93314934 210.29960442 C-288.30242877 210.43086552 -280.20444608 209.1798052 -272.69946289 202.72094727 C-263.20354303 193.03316998 -264.13112774 179.2091772 -264.21032411 166.52781004 C-264.22711947 164.92065176 -264.24533015 163.3135077 -264.26490259 161.70638084 C-264.30329142 157.56131033 -264.26754758 153.41670043 -264.24411011 149.27160645 C-264.21693527 142.31442636 -264.25246705 135.3596463 -264.32421875 128.40283203 C-264.40584798 120.39664849 -264.379396 112.39619542 -264.29682267 104.39015055 C-264.22840958 97.47622627 -264.21930823 90.56401193 -264.25840271 83.649858 C-264.28160805 79.53784053 -264.28543152 75.42850312 -264.23535538 71.31666565 C-263.40794498 50.47370057 -263.40794498 50.47370057 -272.68359375 32.72607422 C-281.06171377 25.51019733 -290.20285665 25.02424401 -300.81103516 25.23242188 C-302.65941217 25.2222822 -304.50776949 25.20769525 -306.3560791 25.18893433 C-310.20712007 25.16697507 -314.05289846 25.19840237 -317.90332031 25.26904297 C-322.79884794 25.35456326 -327.68204902 25.30526205 -332.57712555 25.21545601 C-336.38741146 25.16079688 -340.19485402 25.17869634 -344.00523376 25.21737289 C-345.80705798 25.2272572 -347.60915532 25.21553282 -349.41065979 25.1801796 C-362.24475111 24.98348529 -372.92827138 27.84142298 -380.02591324 39.36885071 Z M-249.27978516 89.22460938 C-249.27978516 104.07460937 -249.27978516 118.92460937 -249.27978516 134.22460938 C-221.7757843 139.57260954 -193.32016006 142.83565647 -165.27978516 143.22460938 C-163.96494141 143.24507324 -162.65009766 143.26553711 -161.29541016 143.28662109 C-96.45483328 144.93718256 -96.45483328 144.93718256 -33.27978516 133.22460938 C-33.27978516 118.70460938 -33.27978516 104.18460937 -33.27978516 89.22460938 C-105.48413616 79.57517998 -177.13296482 78.91792076 -249.27978516 89.22460938 Z " fill="#FFFFFF" transform="translate(397.27978515625,143.775390625)"/>
</svg>
